<svg version="1.0" xmlns="http://www.w3.org/2000/svg" width="100" height="100" xml:space="preserve"><path fill="#FFCA28" d="M56.666 10h6.666v6.668h-6.666zM83.332 36.665H90v6.668h-6.668zM10 36.665h26.666v6.668H10zM85.282 10 74.141 21.145l4.718 4.709L90 14.715zM25.281 10l15.865 15.864 4.713-4.719L34.712 10z"/><path fill="#29B6F6" d="M73.333 56.666c-3.263-7.832-10.985-13.333-20-13.333-12.421 0-22.825 8.501-25.794 20h-4.206C15.971 63.332 10 69.303 10 76.666S15.971 90 23.333 90h50C82.539 90 90 82.539 90 73.332c0-9.205-7.461-16.666-16.667-16.666zm0 26.666h-50c-3.679 0-6.667-2.994-6.667-6.668a6.67 6.67 0 0 1 6.667-6.666h10c0-11.049 8.955-20 20-20 7.702 0 13.991 5.854 14.831 13.332h5.169c5.515 0 10 4.486 10 10 0 5.518-4.485 10.002-10 10.002z"/><path fill="#FFCA28" d="M50.653 43.471C50.252 42.387 50 41.226 50 40c0-5.523 4.477-10 9.996-10C65.523 30 70 34.477 70 40c0 3.106-1.446 5.847-3.669 7.68a21.72 21.72 0 0 1 4.652 4.764c3.458-3.057 5.683-7.469 5.683-12.443 0-9.206-7.461-16.667-16.67-16.667-9.203 0-16.664 7.461-16.664 16.667 0 1.738.34 3.382.834 4.958a26.423 26.423 0 0 1 6.487-1.488z"/></svg>